<svg width="64" height="64" viewBox="0 0 64 64" fill="none" xmlns="http://www.w3.org/2000/svg">
			<path d="M31.8862 64H32.1168C46.9507 63.9608 56.8899 60.8645 58.9556 58.9548C61.132 57.003 64 46.9096 64 32C64 17.0904 61.132 6.99699 58.9526 5.04518C56.8899 3.13554 46.9118 0.0391566 32.1168 0H31.8862C17.0523 0.0391566 7.11311 3.13554 5.04743 5.04518C2.868 6.99398 0 17.1265 0 31.997C0 46.8675 2.868 57 5.04743 58.9488C7.11311 60.8976 17.0523 63.994 31.8862 63.994V64Z" fill="#C4E9FD" fill-opacity="0.4"/>
			<mask id="mask0_2267_38159" style="mask-type:alpha" maskUnits="userSpaceOnUse" x="16" y="16" width="32" height="32">
			<rect x="16" y="16" width="32" height="32" fill="#D9D9D9"/>
			</mask>
			<g mask="url(#mask0_2267_38159)">
			<path d="M26 24C25.4444 24 24.9722 24.1944 24.5833 24.5833C24.1944 24.9722 24 25.4444 24 26C24 26.5556 24.1944 27.0278 24.5833 27.4167C24.9722 27.8056 25.4444 28 26 28C26.5556 28 27.0278 27.8056 27.4167 27.4167C27.8056 27.0278 28 26.5556 28 26C28 25.4444 27.8056 24.9722 27.4167 24.5833C27.0278 24.1944 26.5556 24 26 24ZM26 37.3333C25.4444 37.3333 24.9722 37.5278 24.5833 37.9167C24.1944 38.3056 24 38.7778 24 39.3333C24 39.8889 24.1944 40.3611 24.5833 40.75C24.9722 41.1389 25.4444 41.3333 26 41.3333C26.5556 41.3333 27.0278 41.1389 27.4167 40.75C27.8056 40.3611 28 39.8889 28 39.3333C28 38.7778 27.8056 38.3056 27.4167 37.9167C27.0278 37.5278 26.5556 37.3333 26 37.3333ZM21.3333 20H42.6667C43.0444 20 43.3611 20.1278 43.6167 20.3833C43.8722 20.6389 44 20.9556 44 21.3333V30.6667C44 31.0444 43.8722 31.3611 43.6167 31.6167C43.3611 31.8722 43.0444 32 42.6667 32H21.3333C20.9556 32 20.6389 31.8722 20.3833 31.6167C20.1278 31.3611 20 31.0444 20 30.6667V21.3333C20 20.9556 20.1278 20.6389 20.3833 20.3833C20.6389 20.1278 20.9556 20 21.3333 20ZM22.6667 22.6667V29.3333H41.3333V22.6667H22.6667ZM21.3333 33.3333H42.6667C43.0444 33.3333 43.3611 33.4611 43.6167 33.7167C43.8722 33.9722 44 34.2889 44 34.6667V44C44 44.3778 43.8722 44.6944 43.6167 44.95C43.3611 45.2056 43.0444 45.3333 42.6667 45.3333H21.3333C20.9556 45.3333 20.6389 45.2056 20.3833 44.95C20.1278 44.6944 20 44.3778 20 44V34.6667C20 34.2889 20.1278 33.9722 20.3833 33.7167C20.6389 33.4611 20.9556 33.3333 21.3333 33.3333ZM22.6667 36V42.6667H41.3333V36H22.6667Z" fill="#0357EE"/>
			</g>
			</svg>