<?xml version="1.0" encoding="UTF-8"?>
<svg id="Layer_2" data-name="Layer 2" xmlns="http://www.w3.org/2000/svg" viewBox="0 0 615.13 152.78">
  <defs>
    <style>
      .cls-1 {
        fill-rule: evenodd;
      }

      .cls-1, .cls-2 {
        fill: #fff;
        stroke-width: 0px;
      }
    </style>
  </defs>
  <g id="Layer_1-2" data-name="Layer 1">
    <g>
      <path class="cls-2" d="M141.66,12.05C136.7,7.48,112.82.09,77.17,0h-.55C41.07.09,17.09,7.48,12.13,12.05,6.89,16.7,0,40.89,0,76.39s6.89,59.69,12.13,64.34c4.96,4.57,28.85,11.96,64.49,12.05h.55c35.64,0,59.53-7.39,64.49-12.05,5.23-4.65,12.12-28.84,12.12-64.34s-6.89-59.68-12.12-64.34ZM102.44,106.55c-4.48,0-6.36-1.94-6.72-6.71l-1.52-31.86h-.18c-1.25,4.68-11.11,28.07-11.11,28.07h-12.99s-9.85-23.74-10.57-26.21l-.53-1.86h-.18c.27,4.06-1.53,31.86-1.53,31.86-.36,4.77-2.15,6.71-6.72,6.71h-10.57l2.42-30.36,2.87-29.91h17.38l13.89,30.18h.18c1.16-3.62,14.33-30.18,14.33-30.18h17.29l2.87,34.51h-.01s1.97,25.76,1.97,25.76h-10.57Z"/>
      <path class="cls-2" d="M556.2,104.05h-13.52v-40.31l7.35-.04c1.82,0,3.2.42,4.14,1.26.99.79,1.48,1.88,1.48,3.29v.55l-.08.94h.16c2.76-4.65,7.01-6.98,12.74-6.98,9.64,0,14.46,5.04,14.46,15.12v26.17h-7.82c-1.98,0-3.44-.44-4.38-1.33-.88-.94-1.33-2.4-1.33-4.39v-17.94c0-3.55-1.48-5.33-4.45-5.33-3.96,0-6.62,1.93-7.98,5.8-.52,1.41-.78,3.19-.78,5.33v17.87h0Z"/>
      <path class="cls-1" d="M471.48,83.99c0-6.27,2.16-11.36,6.49-15.28,4.32-3.97,9.72-5.96,16.18-5.96s11.94,1.99,16.26,5.96c4.38,3.92,6.57,9.01,6.57,15.28s-2.19,11.28-6.57,15.2c-4.32,3.87-9.72,5.8-16.18,5.8s-11.83-1.93-16.26-5.8c-4.32-3.92-6.49-8.99-6.49-15.2ZM485.09,83.99c0,2.87.86,5.22,2.58,7.05,1.78,1.77,3.96,2.66,6.57,2.66s4.77-.89,6.49-2.66c1.77-1.83,2.66-4.18,2.66-7.05s-.88-5.3-2.66-7.13c-1.72-1.88-3.88-2.82-6.49-2.82s-4.79.94-6.57,2.82c-1.72,1.83-2.58,4.2-2.58,7.13Z"/>
      <path class="cls-1" d="M425.01,119.73h13.52v-14.74c0-1.04-.05-2.19-.16-3.45h.16l1.1.86c.84.63,2.12,1.2,3.83,1.73,1.77.57,3.54.86,5.32.86,5.42,0,9.91-1.93,13.45-5.8,3.54-3.87,5.32-8.96,5.32-15.28s-1.66-11.47-5-15.28c-3.29-3.92-7.66-5.88-13.14-5.88-2.55,0-4.82.44-6.8,1.33-1.98.89-3.36,1.73-4.14,2.51-.73.73-1.1,1.17-1.1,1.33h-.16v-.7c0-1.04-.44-1.88-1.33-2.51-.84-.68-2.14-1.02-3.91-1.02h-7.17l.21,10.82v45.22ZM440.25,91.04c-1.41-1.88-2.11-4.18-2.11-6.9,0-3.19.73-5.65,2.19-7.36,1.46-1.73,3.36-2.59,5.71-2.59s4.25.91,5.71,2.74c1.46,1.83,2.19,4.23,2.19,7.21s-.75,5.28-2.27,7.05c-1.46,1.73-3.34,2.59-5.63,2.59s-4.32-.91-5.79-2.74h0Z"/>
      <path class="cls-1" d="M379.16,83.83c0-6.06,1.91-11.08,5.71-15.05,3.85-4.02,8.94-6.03,15.24-6.03,5.79,0,10.32,1.83,13.61,5.49,3.34,3.55,5,8.23,5,14.02l-.31,4.07h-25.41c.47,2.35,1.54,4.18,3.21,5.49,1.72,1.26,3.78,1.88,6.18,1.88,1.56,0,3.23-.31,5-.94,1.77-.68,3.21-1.41,4.3-2.19l1.41-1.1,5.4,9.09c-.47.47-1.46,1.23-2.97,2.27-1.56.94-2.76,1.59-3.6,1.96-3.5,1.46-7.04,2.19-10.63,2.19-6.78,0-12.17-2.09-16.18-6.27-3.96-4.13-5.94-9.09-5.94-14.89ZM393.39,78.11h11.49c0-1.36-.47-2.56-1.41-3.6-.94-1.04-2.06-1.57-3.36-1.57-3.49,0-5.73,1.73-6.72,5.17Z"/>
      <path class="cls-2" d="M360.02,98.34c0,1.99.44,3.45,1.33,4.39.94.89,2.4,1.33,4.38,1.33h7.82v-34.64c0-1.99-.47-3.42-1.41-4.31-.88-.94-2.32-1.41-4.3-1.41h-7.82v34.64h0Z"/>
      <path class="cls-2" d="M326.89,104.06h-13.52v-27.27c0-1.15,0-1.57,0-1.57v-11.52h7.34c1.82,0,3.21.42,4.14,1.26.99.79,1.48,1.88,1.48,3.29v.55l-.08.94h.16c2.76-4.65,7.01-6.98,12.74-6.98,9.64,0,14.46,5.04,14.46,15.12v14.15c0,.12,0,.24,0,.51-.1,4.44-.03,11.51-.03,11.51h-7.78c-1.98,0-3.44-.44-4.38-1.33-.88-.94-1.33-2.4-1.33-4.39v-17.95c0-3.55-1.48-5.33-4.45-5.33-3.96,0-6.62,1.93-7.98,5.8-.52,1.41-.78,3.19-.78,5.33v17.87h0Z"/>
      <path class="cls-1" d="M263.5,83.99c0-6.27,2.16-11.36,6.49-15.28,4.32-3.97,9.72-5.96,16.18-5.96s11.94,1.99,16.26,5.96c4.38,3.92,6.57,9.01,6.57,15.28s-2.19,11.28-6.57,15.2c-4.32,3.87-9.72,5.8-16.18,5.8s-11.83-1.93-16.26-5.8c-4.32-3.92-6.49-8.99-6.49-15.2ZM277.11,83.99c0,2.87.86,5.22,2.58,7.05,1.77,1.77,3.96,2.66,6.57,2.66s4.77-.89,6.49-2.66c1.77-1.83,2.66-4.18,2.66-7.05s-.88-5.3-2.66-7.13c-1.72-1.88-3.88-2.82-6.49-2.82s-4.79.94-6.57,2.82c-1.72,1.83-2.58,4.2-2.58,7.13Z"/>
      <path class="cls-2" d="M255.89,48.02l2.63,32.02,1.8,23.92h-9.69c-4.1,0-5.83-1.79-6.16-6.22l-1.39-29.57h-.17c-1.15,4.35-10.17,26.05-10.17,26.05h-11.9s-9.03-22.04-9.69-24.34l-.49-1.72h-.17c.26,3.77-1.39,29.57-1.39,29.57-.34,4.41-1.98,6.22-6.16,6.22h-9.7l2.21-28.17,2.62-27.77h15.94l12.72,28.01h.17c1.07-3.35,13.14-28.01,13.14-28.01h15.85Z"/>
      <path class="cls-2" d="M592.61,74.28v14.89c0,5.59,2.32,9.82,6.96,12.69,3.23,1.73,7.19,2.59,11.88,2.59,1.46,0,2.69-.08,3.67-.23v-11.75l-1.8.08c-4.79,0-7.19-1.73-7.19-5.17v-13.09h8.45v-10.58h-8.45v-10.89h-13.14v10.89h-5.55v10.58h5.16Z"/>
      <path class="cls-2" d="M373.46,53.26c0,1.44-.23,2.83-.65,4.14-.3.91-1.03,1.64-1.94,1.93-1.3.42-2.69.64-4.13.64s-2.83-.23-4.13-.64c-.91-.29-1.64-1.02-1.94-1.93-.42-1.31-.65-2.71-.65-4.14s.23-2.83.65-4.14c.3-.91,1.03-1.64,1.94-1.93,1.3-.42,2.69-.64,4.13-.64s2.83.23,4.13.64c.91.29,1.64,1.02,1.94,1.93.42,1.31.65,2.71.65,4.14Z"/>
      <path class="cls-2" d="M522.3,98.34c0,1.99.44,3.45,1.33,4.39.94.89,2.4,1.33,4.38,1.33h7.82v-34.64c0-1.99-.47-3.42-1.41-4.31-.88-.94-2.32-1.41-4.3-1.41h-7.82v34.64h0Z"/>
      <path class="cls-2" d="M535.73,53.26c0,1.44-.23,2.83-.65,4.14-.3.91-1.03,1.64-1.94,1.93-1.3.42-2.69.64-4.13.64s-2.83-.23-4.13-.64c-.91-.29-1.64-1.02-1.94-1.93-.42-1.31-.65-2.71-.65-4.14s.23-2.83.65-4.14c.3-.91,1.03-1.64,1.94-1.93,1.3-.42,2.69-.64,4.13-.64s2.83.23,4.13.64c.91.29,1.64,1.02,1.94,1.93.42,1.31.65,2.71.65,4.14Z"/>
    </g>
  </g>
</svg>