<svg width="64" height="64" viewBox="0 0 64 64" fill="none" xmlns="http://www.w3.org/2000/svg">
			<path d="M31.8862 64H32.1168C46.9507 63.9608 56.8899 60.8645 58.9556 58.9548C61.132 57.003 64 46.9096 64 32C64 17.0904 61.132 6.99699 58.9526 5.04518C56.8899 3.13554 46.9118 0.0391566 32.1168 0H31.8862C17.0523 0.0391566 7.11311 3.13554 5.04743 5.04518C2.86799 6.99398 0 17.1265 0 31.997C0 46.8675 2.86799 57 5.04743 58.9488C7.11311 60.8976 17.0523 63.994 31.8862 63.994V64Z" fill="#C4E9FD" fill-opacity="0.4"/>
			<mask id="mask0_2267_38173" style="mask-type:alpha" maskUnits="userSpaceOnUse" x="16" y="16" width="32" height="32">
			<rect x="16" y="16" width="32" height="32" fill="#D9D9D9"/>
			</mask>
			<g mask="url(#mask0_2267_38173)">
			<path d="M22.6667 44C21.9333 44 21.3056 43.7389 20.7833 43.2167C20.2611 42.6944 20 42.0667 20 41.3333V21.3333C20 20.9556 20.1278 20.6389 20.3833 20.3833C20.6389 20.1278 20.9556 20 21.3333 20C21.7111 20 22.0278 20.1278 22.2833 20.3833C22.5389 20.6389 22.6667 20.9556 22.6667 21.3333V41.3333H42.6667C43.0444 41.3333 43.3611 41.4611 43.6167 41.7167C43.8722 41.9722 44 42.2889 44 42.6667C44 43.0444 43.8722 43.3611 43.6167 43.6167C43.3611 43.8722 43.0444 44 42.6667 44H22.6667ZM25.3333 40C24.9556 40 24.6389 39.8722 24.3833 39.6167C24.1278 39.3611 24 39.0444 24 38.6667V29.3333C24 28.9556 24.1278 28.6389 24.3833 28.3833C24.6389 28.1278 24.9556 28 25.3333 28H28C28.3778 28 28.6944 28.1278 28.95 28.3833C29.2056 28.6389 29.3333 28.9556 29.3333 29.3333V38.6667C29.3333 39.0444 29.2056 39.3611 28.95 39.6167C28.6944 39.8722 28.3778 40 28 40H25.3333ZM32 40C31.6222 40 31.3056 39.8722 31.05 39.6167C30.7944 39.3611 30.6667 39.0444 30.6667 38.6667V22.6667C30.6667 22.2889 30.7944 21.9722 31.05 21.7167C31.3056 21.4611 31.6222 21.3333 32 21.3333H34.6667C35.0444 21.3333 35.3611 21.4611 35.6167 21.7167C35.8722 21.9722 36 22.2889 36 22.6667V38.6667C36 39.0444 35.8722 39.3611 35.6167 39.6167C35.3611 39.8722 35.0444 40 34.6667 40H32ZM38.6667 40C38.2889 40 37.9722 39.8722 37.7167 39.6167C37.4611 39.3611 37.3333 39.0444 37.3333 38.6667V34.6667C37.3333 34.2889 37.4611 33.9722 37.7167 33.7167C37.9722 33.4611 38.2889 33.3333 38.6667 33.3333H41.3333C41.7111 33.3333 42.0278 33.4611 42.2833 33.7167C42.5389 33.9722 42.6667 34.2889 42.6667 34.6667V38.6667C42.6667 39.0444 42.5389 39.3611 42.2833 39.6167C42.0278 39.8722 41.7111 40 41.3333 40H38.6667Z" fill="#0357EE"/>
			</g>
			</svg>