<svg width="64" height="64" viewBox="0 0 64 64" fill="none" xmlns="http://www.w3.org/2000/svg">
			<path d="M31.8862 64H32.1168C46.9507 63.9608 56.8899 60.8645 58.9556 58.9548C61.132 57.003 64 46.9096 64 32C64 17.0904 61.132 6.99699 58.9526 5.04518C56.8899 3.13554 46.9118 0.0391566 32.1168 0H31.8862C17.0523 0.0391566 7.11311 3.13554 5.04743 5.04518C2.86799 6.99398 0 17.1265 0 31.997C0 46.8675 2.86799 57 5.04743 58.9488C7.11311 60.8976 17.0523 63.994 31.8862 63.994V64Z" fill="#C4E9FD" fill-opacity="0.4"/>
			<mask id="mask0_2267_38166" style="mask-type:alpha" maskUnits="userSpaceOnUse" x="16" y="16" width="32" height="32">
			<rect x="16" y="16" width="32" height="32" fill="#D9D9D9"/>
			</mask>
			<g mask="url(#mask0_2267_38166)">
			<path d="M29.9333 33.3L31.6667 35.0333C31.9111 35.2778 32.2222 35.4 32.6 35.4C32.9778 35.4 33.2889 35.2778 33.5333 35.0333L37.3333 31.2333V32.0333C37.3333 32.4111 37.4611 32.7222 37.7167 32.9667C37.9722 33.2111 38.2889 33.3333 38.6667 33.3333C39.0444 33.3333 39.3611 33.2056 39.6167 32.95C39.8722 32.6944 40 32.3778 40 32V28C40 27.6222 39.8722 27.3056 39.6167 27.05C39.3611 26.7944 39.0444 26.6667 38.6667 26.6667H34.6333C34.2556 26.6667 33.9444 26.7944 33.7 27.05C33.4556 27.3056 33.3333 27.6222 33.3333 28C33.3333 28.3778 33.4611 28.6944 33.7167 28.95C33.9722 29.2056 34.2889 29.3333 34.6667 29.3333H35.4333L32.6 32.2L30.8667 30.4667C30.6222 30.2 30.3111 30.0667 29.9333 30.0667C29.5556 30.0667 29.2444 30.2 29 30.4667L24.9333 34.5333C24.6667 34.7778 24.5333 35.0889 24.5333 35.4667C24.5333 35.8444 24.6667 36.1556 24.9333 36.4C25.1778 36.6667 25.4889 36.8 25.8667 36.8C26.2444 36.8 26.5556 36.6667 26.8 36.4L29.9333 33.3ZM22.6667 44C21.9333 44 21.3056 43.7389 20.7833 43.2167C20.2611 42.6944 20 42.0667 20 41.3333V22.6667C20 21.9333 20.2611 21.3056 20.7833 20.7833C21.3056 20.2611 21.9333 20 22.6667 20H41.3333C42.0667 20 42.6944 20.2611 43.2167 20.7833C43.7389 21.3056 44 21.9333 44 22.6667V41.3333C44 42.0667 43.7389 42.6944 43.2167 43.2167C42.6944 43.7389 42.0667 44 41.3333 44H22.6667ZM22.6667 41.3333H41.3333V22.6667H22.6667V41.3333Z" fill="#0357EE"/>
			</g>
			</svg>